# xmcd
#
# Track frame offsets:
# 150
# 17462
# 36407
# 63887
# 110681
# 129275
# 150588
# 169420
# 182382
# 201832
# 214109
# 226964
# 240892
# 253684
# 266180
# 279762
# 293380
# 305867
# 316442
# 328339
#
# Disc length: 4640 seconds
#
#
# Revision: 0
# Processed by: cddbd v1.5.2PL0 Copyright (c) Steve Scherf et al.
# Submitted via: Nero 7, 2, 3, 3 
#
DISCID=1a121e14
DTITLE=Compilation - Pure Blues
DYEAR=2007
DGENRE=Blues
TTITLE0=Pure Blues
TTITLE1=Pure Blues
TTITLE2=Pure Blues
TTITLE3=Pure Blues
TTITLE4=Pure Blues
TTITLE5=Pure Blues
TTITLE6=Pure Blues
TTITLE7=Pure Blues
TTITLE8=Pure Blues
TTITLE9=Pure Blues
TTITLE10=Pure Blues
TTITLE11=Pure Blues
TTITLE12=Pure Blues
TTITLE13=Pure Blues
TTITLE14=Pure Blues
TTITLE15=Pure Blues
TTITLE16=Pure Blues
TTITLE17=Pure Blues
TTITLE18=Pure Blues
TTITLE19=Pure Blues
EXTD=
EXTT0=
EXTT1=
EXTT2=
EXTT3=
EXTT4=
EXTT5=
EXTT6=
EXTT7=
EXTT8=
EXTT9=
EXTT10=
EXTT11=
EXTT12=
EXTT13=
EXTT14=
EXTT15=
EXTT16=
EXTT17=
EXTT18=
EXTT19=
PLAYORDER=
